<?xml version="1.0" standalone="no"?>
<!DOCTYPE svg PUBLIC "-//W3C//DTD SVG 1.1//EN" "http://www.w3.org/Graphics/SVG/1.1/DTD/svg11.dtd" >
<svg xmlns="http://www.w3.org/2000/svg" xmlns:xlink="http://www.w3.org/1999/xlink" version="1.1">
<metadata></metadata>
<defs>
<font id="sushi_omelette_demoregular" horiz-adv-x="2048" >
<font-face units-per-em="2048" ascent="1536" descent="-512" />
<missing-glyph horiz-adv-x="819" />
<glyph unicode="&#xd;" horiz-adv-x="1040" />
<glyph horiz-adv-x="0" />
<glyph horiz-adv-x="0" />
<glyph unicode=" "  horiz-adv-x="819" />
<glyph unicode="&#x09;" horiz-adv-x="819" />
<glyph unicode="&#xa0;" horiz-adv-x="819" />
<glyph unicode="!" horiz-adv-x="602" d="M184 -45q0 29 17 53t45 33q19 16 43 16q32 0 51 -22q23 -27 27 -49q6 -28 -2 -54q-15 -37 -43 -51q-21 -14 -48 -14h-4q-35 2 -60.5 27.5t-25.5 60.5zM203 215q-17 388 2 819q1 32 24.5 51t51.5 19t49 -21q19 -19 16 -47q-19 -433 -2 -817q0 -31 -18 -49q-20 -23 -52 -23 q-28 0 -49.5 18.5t-21.5 49.5z" />
<glyph unicode="&#x22;" horiz-adv-x="684" />
<glyph unicode="#" horiz-adv-x="915" d="M-59 340q-2 27 15 50t46 26h16h2l21 112l14 84h-51q-28 0 -49 21q-14 21 -14 45q0 27 16.5 46t46.5 19h76l2 7l16 98q4 22 20 34.5t38 12.5q35 0 55 -27q20 -23 14 -53l-6 -37l-6 -35h131q6 43 6 78q1 29 21 45.5t47 16.5q28 0 47 -19q16 -16 16 -45q0 -33 -6 -76h37 q30 0 46.5 -19t16.5 -46t-16.5 -46.5t-46.5 -19.5h-59q0 -4 -4 -16q-2 -11 -17 -86l-8 -47l-6 -37q40 -3 78 -6q30 -3 46.5 -25t14.5 -49q-2 -25 -17.5 -41t-39.5 -16h-6q-31 4 -97 8l-18 -104q-10 -48 -55 -48q-33 0 -58 25q-17 23 -14 55l2 4l10 70q-45 0 -135 -4l-12 -68 l-13 -75q-5 -22 -20 -35t-37 -13q-34 0 -55 25q-21 27 -15 55l19 101q-26 0 -39.5 16t-15.5 39zM154 426q82 4 122 4h11l8 39l8 51q4 32 16 88l3 4h-134z" />
<glyph unicode="$" horiz-adv-x="897" d="M-113 600q14 128 88.5 254.5t174.5 235.5q5 5 14 15t14 15q-6 73 -18 142q-4 31 14.5 53.5t46.5 27.5q24 3 44 -8.5t26 -40.5q8 -50 10 -77q182 108 274 -23q37 -53 46 -121.5t-6 -135.5t-37 -122.5t-50 -101.5q-16 -26 -44 -31t-50 10q-22 13 -29.5 36t7.5 52 q10 16 21 36.5t26 55.5t22 68.5t9.5 74.5t-11.5 75q-8 28 -30 34q-48 13 -134 -61q6 -84 11 -315q0 -95 2 -142l4 -188q31 6 51.5 9.5t51 6t51 0.5t45 -8.5t41 -20t30.5 -35.5t21 -53q10 -43 -2 -83.5t-39 -70t-48 -46.5t-42 -29q-62 -40 -152 -53l2 -148q3 -37 -29 -53 q-13 -10 -37 -10q-21 0 -34 8q-33 20 -33 55l-4 148h-8q-22 3 -36 18t-14 37q0 23 15.5 45t40.5 29l-2 102q-32 -4 -45 -4q-116 0 -189 82q-45 50 -66 118t-14 138zM16 526q9 -70 70 -110q35 -25 113 -19l-4 181q-2 55 -2 161q0 31 -1.5 95t-1.5 96q-73 -90 -130 -202 t-44 -202zM334 287l2 -117q34 7 59 18q16 8 35 19.5t41 32t23 36.5q3 11 -11 21q-22 18 -116 -4q-18 -6 -29 -6h-4z" />
<glyph unicode="%" horiz-adv-x="821" d="M-145 909q-23 63 2 126t86 95q22 11 37 11h6h4q12 4 35 4q62 0 107.5 -36.5t55.5 -94.5q14 -63 -17.5 -121t-92.5 -84q-32 -14 -68 -14q-51 0 -93 31t-62 83zM-33 119q26 144 79 314t97 282.5t123 302.5q12 31 37.5 93t38.5 93q19 49 74 49q43 0 65 -32q16 -26 4 -60 q-12 -31 -37.5 -93.5t-37.5 -92.5q-159 -380 -220 -574q23 50 63.5 84.5t90.5 38.5h6q24 0 41 -14q55 -9 92 -61.5t37 -110.5q1 -70 -45.5 -129.5t-112.5 -73.5q-20 -4 -30 -4q-63 0 -107 47q-56 53 -53 129q0 27 2 41q-42 -149 -61 -266q-4 -26 -22 -40.5t-44 -14.5 q-35 0 -63 28q-23 30 -17 64zM-6 961q6 -19 16 -19q1 0 4 1t4 1q12 5 20 16.5t5 22.5q0 5 -4 9.5t-8 4.5h-2q-3 0 -8.5 -1t-8.5 -1h-4q-20 -13 -14 -34zM319 313q0 -22 9 -28q4 -4 6 -4t2 2q10 1 21.5 16t13.5 29q4 17 -6 32q-16 -4 -23 -4h-8q-2 -4 -15 -43z" />
<glyph unicode="&#x26;" horiz-adv-x="989" d="M-25 291q-20 135 16.5 270.5t121.5 241.5q-57 85 -44 182t89 158q60 51 137 51q46 0 82 -20q82 -49 90 -203q3 -31 -16 -53q-21 -21 -52 -21q-28 0 -50 19.5t-23 52.5v6q-2 34 -8.5 51t-26.5 18h-2q-32 0 -60 -32q-25 -31 -22 -74q3 -46 39 -74q33 -26 33 -63 q3 -29 -21 -53q-138 -138 -147 -328q-5 -161 49 -223q25 -25 53 -25q22 0 49 12q73 35 115 135t31 191q-10 59 -25 74q-10 0 -41 -54l-2 -2q-43 -73 -37 -174q0 -35 -16 -51q-19 -22 -51 -22q-28 0 -50.5 19t-23.5 52q-9 171 88 301q54 70 117 82q12 6 24 6q11 0 31 -8 q12 -3 24 -12q35 -12 78 -12q56 0 84 22q17 14 39 14q21 0 37.5 -14t22.5 -37q20 -55 -25 -92q-51 -41 -137 -45q25 -117 -20.5 -246.5t-125.5 -206.5q-85 -79 -188 -79q-45 0 -80 14q-126 49 -156 252z" />
<glyph unicode="'" horiz-adv-x="485" />
<glyph unicode="(" horiz-adv-x="694" d="M102 622q-1 297 140 552q19 36 57 36q20 0 38.5 -11t27.5 -28q22 -32 0 -69q-122 -223 -120 -480.5t126 -478.5q19 -37 0 -69q-24 -39 -68 -39q-39 0 -57 35q-143 255 -144 552z" />
<glyph unicode=")" horiz-adv-x="706" d="M238 43q-19 32 0 68q128 218 139 477.5t-98 486.5q-17 38 4 68q23 37 63 37q37 0 55 -37q124 -261 115 -557q-12 -295 -158 -547q-17 -33 -57 -33q-44 0 -63 37z" />
<glyph unicode="*" horiz-adv-x="499" d="M158.5 1138q-10.5 22 0 43t36.5 19q2 0 4.5 -1t3.5 -1q0 2 -4 6q-15 20 -3.5 39.5t33.5 21.5t41 -14v9q3 26 25.5 36.5t43 0t17.5 -36.5q0 -4 -1 -13t-1 -14q8 8 17 14q19 18 42.5 10t28.5 -28.5t-12 -40.5l-6 -6q1 0 3.5 -1t4.5 -1q25 -2 35.5 -24t0.5 -43t-36 -19 l-41 4q15 -15 21 -23q17 -19 8.5 -43t-29.5 -29.5t-41 11.5q-3 4 -8.5 10.5t-7.5 9.5q-2 -2 -2 -8q-3 -25 -24.5 -36t-42 -1t-19.5 35q-29 -8 -48.5 20t5.5 52q6 4 18 16l-26 2q-26 2 -36.5 24z" />
<glyph unicode="+" horiz-adv-x="681" d="M43 475q2 26 19 43.5t47 16.5q16 -1 47 -2.5t47 -2.5l6 97q0 39 35 57q39 17 71 -2q30 -20 27 -55l-4 -92q16 1 49 4t49 4q28 3 44.5 -12t19.5 -39q3 -30 -14.5 -54.5t-49.5 -27.5q-48 -6 -104 -9l-6 -110q-1 -29 -22 -46.5t-48 -17.5h-4q-26 2 -43 19t-16 47l4 104 q-16 0 -46.5 1t-44.5 1q-31 3 -48 25.5t-15 50.5z" />
<glyph unicode="," horiz-adv-x="473" d="M199 39q29 65 14 111q-9 31 6 53q16 26 51 26q45 0 58 -43q30 -90 -25 -211q-16 -32 -47 -32q-35 0 -55 34q-17 31 -2 62z" />
<glyph unicode="-" horiz-adv-x="827" d="M133 500q0 26 17 45.5t47 19.5h4q105 -6 205 -6q18 0 53 1t53 1h2q31 0 48.5 -20t17.5 -47q0 -28 -18 -50.5t-50 -23.5h-106q-137 0 -205 4q-33 1 -51.5 24t-16.5 52z" />
<glyph unicode="." horiz-adv-x="372" d="M31 51q-2 26 13.5 47.5t41.5 28.5q17 14 37 14q30 0 45 -18q20 -25 25 -45q5 -23 -3 -47q-12 -30 -38 -47q-18 -11 -41 -11h-5q-31 0 -53 23t-22 55z" />
<glyph unicode="/" horiz-adv-x="616" d="M-123 94q214 549 379 1120q13 50 61 50q41 0 64 -33q22 -29 10 -64q-153 -547 -377 -1122q-19 -45 -65 -45q-43 0 -66 33q-18 27 -6 61z" />
<glyph unicode="0" horiz-adv-x="702" d="M-59 555q4 178 29.5 308t103.5 233q30 37 55 55q39 33 94 33t94 -33q22 -17 56 -55q77 -102 102 -231t29 -310q3 -178 -37 -291l-4 -12q-16 -45 -22.5 -62t-23.5 -53.5t-36.5 -59.5t-44.5 -40q-51 -33 -109 -33h-4h-6q-57 0 -108 33q-32 22 -58 62t-38.5 71.5t-28.5 81.5 l-4 12q-42 118 -39 291zM98 745q-35 -297 37 -483q14 -33 24.5 -53t28 -38t35.5 -19q45 2 86 110q72 186 37 483q-14 133 -65 224q-32 51 -52 67q-2 2 -6 2q-6 0 -8 -2q-18 -14 -51 -67q-48 -87 -66 -224z" />
<glyph unicode="1" horiz-adv-x="419" d="M-109 938q9 27 13 43q9 32 13 45.5t14.5 45t20 47t24 35t32.5 28t39 8.5q3 0 10.5 -1t10.5 -1q34 -7 54.5 -32t26 -57t7.5 -68t-2 -66q0 -7 -1 -20t-1 -19l-7 -811q22 0 43 -21t21 -55q-3 -28 -21 -43q-56 -47 -122 -47q-51 0 -99 33q-23 18 -28.5 44.5t6.5 49.5 q21 35 57 35q8 0 12 -2l6 567v149l3 90l-7 -14q-6 -22 -22.5 -34.5t-38.5 -12.5q-38 0 -57 29q-16 25 -7 55z" />
<glyph unicode="2" horiz-adv-x="704" d="M-131 827q4 54 22 112t49 115t83.5 96t117.5 44h13q55 0 101 -31.5t71 -87.5q15 -37 19 -83t1 -81t-12 -88q-14 -84 -48 -181.5t-62 -161t-79 -171.5l-4 -10l-4 -10q-50 -108 -59 -129q-2 -3 -5 -11.5t-5 -11.5q0 -2 -5 -12h25h8h6h17h6l78 8l76 6l65 4h6 q26 0 43.5 -16.5t18.5 -44.5q2 -27 -16 -50t-50 -26q-16 -1 -50 -4t-52 -4q-113 -13 -207 -16h-4q-68 0 -103 38q-28 31 -22 80q9 67 72 179q5 10 14.5 29.5t13.5 27.5l17 37q56 119 98 219q58 149 78 266q9 34 7 98.5t-24 87.5q-9 15 -26 15q-13 0 -33 -10 q-49 -23 -79.5 -84.5t-37.5 -130.5q-2 -6 -2 -21l6 10v2q15 37 54 37q40 0 61 -35q22 -32 6 -69q-3 -4 -12 -27q-38 -82 -59 -109q-34 -42 -76 -42q-22 0 -43 12q-84 42 -74 235z" />
<glyph unicode="3" horiz-adv-x="782" d="M-106 354q-13 61 5.5 122.5t73.5 94.5q38 23 78 23q41 0 77 -21t56 -57q20 -33 0 -65q-9 -17 -26.5 -28t-36.5 -11q-38 0 -58 34l-8 9q-12 0 -22 -17q-13 -23 0 -67q16 -67 76 -135q56 -74 129 -74q64 0 116 61q91 105 60 240q-19 77 -74 141t-131 98q-34 15 -37 58 q0 46 35 63q70 38 88 92q13 41 -4 76q-23 45 -70 45q-22 0 -40.5 -14.5t-22.5 -44.5q-6 -51 -60 -51q-36 0 -59 26q-19 25 -16 60q13 78 71.5 120t126.5 42q99 0 160 -70q44 -52 54 -114.5t-9 -118t-59 -99.5q92 -66 143 -163t49 -203q-1 -88 -37.5 -172.5t-107.5 -145.5 t-160 -70h-21q-63 0 -122.5 32.5t-102.5 83t-73 108t-41 112.5z" />
<glyph unicode="4" horiz-adv-x="821" d="M23 1085q0 30 18 48q20 20 51 20q28 0 49 -18t21 -50l4 -565l2 -37v-37l-1 -5q-1 -5 -1 -9t-0.5 -15.5t-0.5 -20t1 -11.5q5 -10 43 -10q6 0 18 1t17 1h20q101 4 144 8l-7 150l-8 170q0 28 19 47q17 20 49 20q29 0 51 -17.5t23 -49.5v-23l12 -281q4 2 10 2 q31 0 51.5 -21.5t22.5 -49.5q2 -25 -12 -43.5t-39 -22.5q-11 0 -27 -4l2 -80l4 -92q0 -31 -16 -47q-17 -20 -51 -20q-28 0 -49.5 17.5t-22.5 49.5l-6 156q-118 -8 -172 -8h-15q-40 1 -67 5t-57.5 16t-48.5 39t-23 69q-10 80 -6 241q0 18 1 55t1 54v20z" />
<glyph unicode="5" horiz-adv-x="862" d="M8 369q0 485 4 725q3 36 29 55q22 18 47 18l404 -2h22q31 0 49.5 -20.5t18.5 -48.5q0 -27 -18.5 -47.5t-49.5 -20.5h-188h-176q-5 -482 -5 -582l58 7l71 6q4 1 12.5 2t12.5 2q50 6 96 6q40 0 58 -4q75 -13 125.5 -69.5t39.5 -129.5q-4 -25 -14 -46t-29 -39t-34 -30.5 t-43.5 -27t-41 -20.5t-42.5 -19q-157 -63 -332 -72h-2q-30 0 -47 19t-17 45q-2 28 16 50.5t50 23.5q116 6 223 40q8 4 17 7q121 35 153 75q12 18 8 29q-6 12 -39 20.5t-79 8.5q-9 0 -22.5 -1t-16.5 -1q-31 -3 -87 -10t-77 -9q-15 -1 -42 -4t-40 -4h-6q-27 0 -45.5 21 t-20.5 47z" />
<glyph unicode="6" horiz-adv-x="845" d="M-139 465q-16 159 24 329t138 277q50 51 120.5 82t139.5 31q76 0 133.5 -37t85.5 -105q12 -34 -4 -59q-23 -29 -64 -29q-54 0 -69 47q-18 41 -78 41q-63 0 -117 -32q-79 -52 -123 -176q-94 -279 -14 -482q22 -61 61 -106q55 123 152 168q51 26 112 26q129 0 160 -104 q19 -64 -1.5 -137t-63.5 -121q-69 -78 -177 -78q-40 0 -81 12q-78 23 -140.5 73t-101.5 114.5t-62 131.5t-30 134zM211 158q35 -15 65 -15q48 0 76 35q31 44 31 82q-2 39 -31 39q-17 0 -33 -8q-68 -26 -108 -133z" />
<glyph unicode="7" horiz-adv-x="712" d="M-158 1130q-2 30 17 56.5t53 30.5q122 16 215 16q8 2 29 2q9 0 26.5 1t26.5 1q65 0 108 -18q41 -17 65.5 -49.5t31 -79t6.5 -79t-4 -81.5v-8q-3 -41 -10.5 -123t-10.5 -119q-1 -16 -5.5 -65t-6.5 -69t-6 -65t-5.5 -69t-4 -64.5t-3.5 -69.5t-2 -65t-1 -69t1 -66 q3 -30 -18 -51t-51 -21t-52.5 19t-23.5 51q-1 34 -1 67.5t1 72t2 66t3.5 72t4 65.5t6 71.5t5.5 65t6 71t6 65.5q4 52 8 78q2 25 7 86t7 94q0 15 2 23q11 91 -8 108q-17 13 -65 13q-32 0 -78 -4q-7 0 -18 -1.5t-15 -1.5q-70 -3 -176 -16h-10q-25 0 -42 16.5t-20 42.5z" />
<glyph unicode="8" horiz-adv-x="753" d="M-90 307q-26 254 127 586q4 8 6 10q-2 4 -6 12.5t-6 12.5q-26 60 -26 118.5t26 102.5q23 37 61 57.5t82 20.5q29 0 62 -10q57 -20 92 -73.5t37 -121.5q2 -98 -74 -201q231 -240 213 -469q-8 -114 -79 -214t-185 -128q-46 -8 -70 -8q-102 0 -166 64q-78 70 -94 241z M51 471q-30 -265 68 -317q26 -13 51 -13q43 0 84.5 27.5t67.5 64.5q69 109 28 242q-14 47 -43 94.5t-52.5 75t-70.5 78.5q-8 8 -23.5 25.5t-23.5 25.5q-67 -159 -86 -303zM147 1065q-21 -55 48 -139q37 60 28 106q-3 20 -19.5 37.5t-33.5 17.5t-23 -22z" />
<glyph unicode="9" horiz-adv-x="868" d="M-127 827q-20 63 1 136t63 122q70 76 176 76q37 0 82 -10q77 -23 139 -73t101 -114t61.5 -130.5t29.5 -133.5q16 -159 -23.5 -328.5t-137.5 -275.5q-47 -51 -118.5 -81.5t-140.5 -30.5q-77 0 -134 37t-83 104q-13 33 5 57q21 31 61 31q24 0 43.5 -13t26.5 -34 q18 -43 77 -43q60 0 115 35q79 52 123 176q94 275 16 477q-24 58 -61 107q-57 -119 -154 -168q-50 -27 -110 -27t-101.5 27.5t-56.5 76.5zM8 903q0 -39 29 -39q17 0 33 8q67 26 108 134q-32 14 -65 14q-46 0 -76 -37q-32 -41 -29 -80z" />
<glyph unicode=":" horiz-adv-x="432" d="M106 221q0 28 17 50.5t45 31.5q14 14 41 14q32 0 49 -20q21 -26 25 -47q5 -26 -2 -51q-15 -35 -41 -49q-20 -13 -47 -13h-3q-34 0 -58 24.5t-26 59.5zM106 549q0 29 17 52t45 32q14 14 41 14q32 0 49 -20q21 -26 25 -47q5 -26 -2 -52q-15 -35 -41 -49q-18 -12 -47 -12h-3 q-34 0 -58 24t-26 58z" />
<glyph unicode=";" horiz-adv-x="372" d="M78 584q0 28 15.5 49.5t41.5 30.5q21 14 39 14q29 0 47 -21q21 -26 25 -45q4 -32 -4 -49q-13 -32 -37 -47q-18 -12 -45 -12h-2q-32 2 -55 25t-25 55zM82 160q-6 23 8 43q25 31 14 59q-12 26 -5.5 50t28.5 36q13 8 33 8q41 0 57 -32q22 -49 17.5 -100t-33.5 -89 q-22 -31 -56 -31q-17 0 -32 9q-25 18 -31 47z" />
<glyph unicode="&#x3c;" horiz-adv-x="710" d="M63 520q-3 26 19 45q183 183 260 244q18 21 45 18q24 0 41 -20q18 -15 21 -39q0 -25 -19 -47q-63 -47 -211 -195q18 -13 55 -40.5t56 -41.5q13 -8 80 -38q20 -8 61 -31q32 -25 29 -58q-2 -18 -12 -33.5t-25 -21.5q-12 -6 -23 -6q-15 0 -32 10q-27 19 -60 31 q-52 19 -82 41q-70 50 -116 88q-33 26 -56 41q-31 24 -31 53z" />
<glyph unicode="=" horiz-adv-x="638" d="M-98 621q0 30 18 52t51 23q47 0 70 2q17 0 53 1t53 1q64 0 93 -4q33 -3 51 -27.5t16 -54.5q-2 -28 -19 -45.5t-44 -17.5h-8q-54 4 -89 4q-17 0 -53 -1t-53 -1q-11 -1 -33.5 -2t-34.5 -2h-2q-32 0 -50.5 22t-18.5 50zM-76 365q0 28 19.5 49.5t52.5 21.5h72h71h8h5h4 q73 0 112 -18q25 -9 35 -37q9 -36 -6 -64q-21 -34 -61 -34q-13 0 -37 8q-8 4 -25 4q-6 0 -19.5 -1t-19.5 -1q-12 -2 -31 -2h-108q-33 0 -52.5 22t-19.5 52z" />
<glyph unicode="&#x3e;" horiz-adv-x="694" d="M88 293q-3 35 29 57q50 31 153 103l39 26q8 5 23.5 15.5t23.5 15.5q-4 4 -12 8l-8 8l-205 148q-25 19 -27 49t15 49q13 21 33.5 26t46.5 -12l213 -155q4 -3 12 -8.5t12 -8.5q29 -18 41.5 -27.5t28 -30.5t14.5 -44q0 -23 -19 -46.5t-37 -36.5t-48 -32q-6 -4 -16 -11 t-13 -9q-79 -59 -205 -139q-14 -11 -32 -11q-15 0 -27 6q-15 8 -25 24.5t-10 35.5z" />
<glyph unicode="?" horiz-adv-x="765" d="M-125 903q-21 142 43 252q40 69 120 112.5t169 43.5q82 0 143 -37q56 -32 90 -89.5t43 -123t7 -124t-13 -110.5q-25 -121 -98 -219q-43 -60 -88 -96l-10 -10q-22 -18 -32 -28.5t-18 -34t-8 -58.5q0 -39 -23 -61.5t-53 -22.5q-25 0 -45 16.5t-26 48.5q-18 116 35 187 q27 40 71 72q55 50 60 55q55 68 80.5 155t15.5 173q-15 125 -84 147q-21 6 -47 6q-69 0 -119 -37q-62 -41 -68 -133q-3 -58 18 -114.5t58 -90.5q35 -31 19 -75q-9 -23 -30 -37.5t-44 -14.5q-30 0 -51 21q-94 85 -115 227zM55 78q0 32 18.5 57.5t49.5 36.5q19 16 45 16 q33 0 55 -22q2 -2 6.5 -8t7 -10t6 -10t6 -12t3.5 -13q5 -32 -4 -60q-14 -34 -45 -53q-20 -14 -51 -14h-2q-38 1 -65.5 28t-29.5 64z" />
<glyph unicode="@" horiz-adv-x="1390" d="M-48 708.5q-5 94.5 5.5 179t45.5 175t95 160.5q94 107 232 172t274 65q103 0 187 -37q91 -38 165 -108t120.5 -155t74 -170.5t37.5 -170.5q21 -198 -58 -370q-86 -186 -253 -275q-5 -4 -23 -8q-6 -2 -20 -2q-36 0 -54 35q-60 124 -78 280q-20 -64 -38 -102 q-3 -7 -9.5 -21.5t-9.5 -21.5q-16 -34 -22.5 -47t-22 -40.5t-32 -44t-36.5 -28.5q-22 -14 -55 -14q-78 0 -127 80q-48 74 -68.5 176t-18.5 176.5t13 148.5q41 291 189 445q56 59 117 59q39 0 69 -24q25 -19 38.5 -49.5t17 -55t4.5 -61.5q10 47 59 47h6h4q30 0 49 -19t19 -47 q0 -34 -10 -192q-8 -117 -10.5 -179.5t6.5 -160t36 -172.5q114 88 160.5 236t11.5 309q-21 94 -61 177.5t-112 157t-162 99.5q-46 14 -103 14q-123 0 -246.5 -66t-187.5 -167q-152 -233 -37 -662q35 -126 122.5 -223.5t190.5 -97.5q64 0 115 32q18 11 35 11q22 0 39.5 -15.5 t23.5 -38.5q13 -49 -28 -73q-83 -50 -180 -50q-121 0 -222 72q-162 110 -229 359q-18 70 -30.5 139t-17.5 163.5zM418 432q22 -77 39 -108q11 -17 16 -17q11 0 33 45q30 58 78 203l8 23q50 159 100 383q-20 -17 -49 -17q-27 0 -47.5 18t-20.5 48v10q0 76 -2 88 q-14 -10 -49 -64l-4 -2q-48 -70 -84 -186q-65 -234 -18 -424z" />
<glyph unicode="A" horiz-adv-x="921" d="M-160 324q0 28 18 49.5t50 21.5h29h16q24 200 70 357q83 290 237 491q99 128 215 131q57 0 102 -32t70 -89q31 -70 43 -221q4 -28 4 -43q16 -148 23 -313l6 -105q2 -34 5 -100.5t5 -99.5q16 -22 16 -46q0 -19 -10 -38q6 -89 27 -256q4 -37 -16 -60q-26 -26 -62 -26 q-25 0 -40.5 14t-18.5 39q-16 103 -29 256l-498 -2h-22q0 -2 -6 -78.5t-8 -124.5q-1 -32 -23.5 -50.5t-50.5 -18.5q-31 0 -51 20q-20 23 -17 49q5 109 15 203h-31q-32 0 -50 21.5t-18 50.5zM96 395h494q-2 34 -5 104t-5 105l-5 58q-6 174 -24 348q-2 8 -2 30q-3 28 -4 38 t-5 39.5t-9 44t-13 33.5t-20 27.5t-27 8.5q-2 0 -6.5 -1t-7.5 -1q-21 -5 -43.5 -23t-38 -36t-36 -51.5t-28.5 -48.5t-26 -48q-7 -14 -13 -23q-66 -125 -112 -284q-43 -143 -64 -320z" />
<glyph unicode="B" horiz-adv-x="907" d="M-319 203q-8 28 -8 54q0 60 40 112q22 28 58 28q51 0 71 -41q6 -12 6 -24q0 -19 -14 -39q-18 -23 -19 -45q0 -11 5 -21q11 -31 51 -55.5t82 -30.5q21 -4 65 -8q-35 291 -35 605q0 91 3 184q1 32 23 50.5t50 18.5q33 0 52 -22q18 -18 18 -47q-3 -94 -3 -189t3 -190 q69 6 139 53q212 184 244 354q7 37 7 71q0 93 -50 163q-63 81 -174 96q-18 2 -53 2q-122 0 -213 -66t-125 -180q-20 -64 -22 -132q0 -10 -1 -21q1 -59 13 -120q14 -72 32.5 -131t48.5 -136q11 -36 -6 -58q-20 -30 -61 -30q-25 0 -44 12.5t-26 34.5q-33 88 -53 157.5 t-35 152.5q-11 62 -11 123q0 20 1 40q5 80 29 155q41 127 130.5 212.5t209.5 113.5q72 16 135 16q216 0 329 -141q66 -83 83 -199q5 -36 6 -71q0 -80 -27 -158q-55 -162 -225 -324q176 -52 213 -190q8 -31 9 -61q0 -60 -34 -113q-34 -56 -98 -98.5t-138 -57.5 q-91 -20 -235 -20h-43q-163 0 -248 35q-57 25 -98.5 72t-56.5 104zM137 393q8 -114 25 -262q52 0 114 10q60 7 115.5 29.5t81.5 58.5q15 24 15 51q0 11 -3 23q-18 84 -161 107q-104 0 -187 -17z" />
<glyph unicode="C" horiz-adv-x="944" d="M-201 575q5 83 16.5 160.5t36.5 166t61 162t93.5 141t130.5 110.5q103 61 203 61q90 0 152 -53q54 -45 76 -111q17 -51 16 -98q0 -14 -2 -28q-6 -60 -29 -115q-14 -34 -33 -67.5t-49 -74.5t-71 -66.5t-85 -25.5q-18 0 -36 6q-75 18 -101 78q-17 36 -17 82q0 72 42 170 q19 39 55 39q38 0 64 -37q12 -20 12 -41q0 -15 -6 -30q-4 -4 -4 -9q-1 -2 -6.5 -13.5t-6.5 -14.5t-5.5 -15t-4.5 -15t-2.5 -14.5t0.5 -13.5q0 -24 16 -24q8 0 21 8q41 30 82 121q20 42 22 90v11q0 42 -18 77q-24 40 -74 43h-14q-65 0 -124 -36t-100.5 -93t-69.5 -113.5 t-44 -111.5q-59 -198 -59 -370q0 -115 26 -218q46 -180 156 -209q28 -4 47 -4q97 0 196 88q100 89 167.5 215.5t95.5 275.5q4 25 21 39.5t40 14.5q39 0 62 -29q20 -23 14 -59q-20 -114 -70 -230.5t-117 -210.5q-84 -116 -185.5 -178t-211.5 -67h-16q-132 0 -221 92 q-84 89 -118 241q-26 117 -26 234q0 35 2 69z" />
<glyph unicode="D" horiz-adv-x="974" d="M-416 793q2 98 22 182t68.5 165t124.5 140q98 76 232 76q122 0 240 -59t188 -156q105 -147 149 -339q25 -112 26 -224q0 -79 -13 -158q-37 -223 -160 -328q-137 -116 -355 -162q-99 -18 -174 -18q-110 0 -196 39q-106 49 -113 131v10q-1 32 17 59q20 31 61 46q20 4 27 4 q39 0 55 -39q7 -17 7 -33q0 -20 -11 -39q2 -2 10 -6q9 -7 31 -14q2 0 4 -2l-27 454l-24 404q-3 30 16 49q17 20 51 20q29 0 51 -17.5t23 -49.5l27 -443l26 -428q21 0 82 9q165 24 295 114q46 33 77.5 86t46 104.5t20.5 113.5q5 52 4 89v13q-1 40 -5 80q-14 139 -72.5 275.5 t-156.5 201.5q-98 67 -238 67h-10q-130 -2 -217 -149q-38 -66 -55 -142q-14 -63 -14 -129v-27q4 -80 14 -145t29 -141q9 -34 -13 -59q-24 -31 -59 -31q-25 0 -42.5 14t-23.5 37q-22 89 -34 173q-11 75 -11 160v22z" />
<glyph unicode="E" horiz-adv-x="968" d="M-227 610q7 45 45 58q22 121 55 225q21 61 40.5 109t50 102.5t62.5 90t76 59.5t93 24q44 0 106 -27q46 -21 82.5 -55.5t59 -77t39.5 -92.5t24 -101t12 -103q4 -44 4 -85v-15v-47v-44v-10q8 -17 8 -34q0 -15 -6 -30q-13 -29 -45 -37q-108 -29 -334 -33q-10 -2 -28 -2 q-71 0 -174 15q0 -8 -1 -20t-1 -17v-28q-1 -34 1 -60q2 -37 12 -81.5t32.5 -80t58.5 -61.5q70 -52 172 -52q50 0 90 11q73 19 132 65t92.5 96.5t58 112.5t33.5 101t14 75q3 24 19 38.5t40 14.5q39 0 62 -26q19 -21 19 -49q0 -5 -1 -11q-12 -85 -42 -166.5t-78.5 -158 t-124.5 -136t-169 -87.5q-68 -21 -141 -21q-129 0 -231.5 59.5t-149.5 163.5q-42 96 -42 255q0 44 3 93q2 2 2 7q-32 20 -32 56q0 8 2 17zM-43 641q76 -12 162 -12h26h5q155 4 231 16q0 220 -41 350q-15 49 -58 95.5t-87 46.5q-34 0 -64 -33q-11 -12 -21 -26t-18 -26.5 t-17 -31.5t-14.5 -29.5t-14 -33.5t-12 -31t-12 -34t-10 -30.5t-10 -32t-8.5 -28.5q-24 -90 -37 -160z" />
<glyph unicode="F" horiz-adv-x="837" d="M-299 1051q-8 17 -8 34q0 23 16 45q55 65 119 107v4v12q-3 31 16 50q17 20 52 20q32 0 55 -23q136 54 291 54h24q183 -6 271 -107q34 -40 50.5 -97t18.5 -99q2 -30 2 -72v-35q-1 -32 -22.5 -49.5t-50.5 -17.5q-35 0 -52 20q-18 18 -18 49v8q1 43 1 82t-14.5 77t-43.5 61 q-49 38 -152 38q-29 0 -45 -2q-137 -6 -238 -55q16 -374 33 -737q58 6 117 6q32 0 106 -4q32 -3 50 -25.5t18 -52.5q-2 -26 -19 -46t-47 -20h-4q-46 5 -106 5q-51 0 -74 -2q-18 0 -33 -3q2 -47 7.5 -138.5t7.5 -135.5q3 -29 -17 -49q-21 -21 -51 -21q-28 0 -50.5 18 t-23.5 50q-6 82 -14 250q-14 -12 -35 -12q-20 0 -38 12.5t-27 32.5q-7 16 -7 31q0 24 17 46q28 31 82 43q-26 567 -29 656q-5 -5 -12.5 -14t-11.5 -13q-19 -24 -48 -24q-19 0 -36.5 11.5t-26.5 31.5z" />
<glyph unicode="G" horiz-adv-x="837" d="M-197 592q-1 7 -1 13q0 36 30 54q-9 67 -9 131q0 82 15 160q31 159 125 283q83 106 197 106q36 0 61 -6q152 -37 213 -180q48 -112 66 -311q0 -32 -17 -49q-21 -21 -51 -21q-28 0 -50.5 18t-25.5 50q-5 65 -8.5 101.5t-20 96.5t-42.5 95q-36 50 -95 63q-18 6 -38 2 q-25 -5 -44 -18t-40 -43q-104 -147 -104 -344q0 -51 7 -105q136 19 281 19q103 0 283 -13q16 8 38 8q35 0 52 -20q18 -18 18 -47q-6 -212 -78 -387v-2q-15 -36 -21 -50t-22 -47t-28.5 -50.5t-31.5 -41t-41 -38t-48 -23.5q-50 -16 -90 -16q-61 0 -116 29t-98.5 79.5t-75 104 t-59.5 116.5q-46 106 -75 219q-22 6 -37.5 23.5t-18.5 40.5zM0 549q35 -132 100 -260q37 -72 80.5 -117.5t104.5 -48.5h4q29 0 53 17t42.5 49t29 56.5t22.5 61.5l6 12q43 120 54 236q-160 10 -248 10q-126 0 -248 -16z" />
<glyph unicode="H" horiz-adv-x="911" d="M-360 940q-3 26 11 45t40 23q14 3 104 18q-2 84 -2 227q0 32 21 50t51 18q28 0 47 -16q22 -17 22 -52q0 -31 1 -100t2 -111q173 13 360 13h121q-2 60 -6 229q0 31 18 49q21 21 51 21q29 0 50.5 -18t21.5 -50q5 -175 6 -235q42 -15 45 -66q0 -50 -41 -67q13 -406 37 -912 q3 -30 -16 -49q-20 -20 -52 -20q-28 0 -50 18t-23 49q-24 513 -37 909h-23h-127q-174 0 -331 -12q12 -432 57 -887q3 -32 -14 -49q-16 -22 -50 -22q-28 0 -51 18t-26 49q-47 462 -58 873q-23 -3 -71 -13h-17q-31 0 -50 21t-21 49z" />
<glyph unicode="I" horiz-adv-x="385" d="M-41 1262q2 25 19.5 43t48.5 18h2q18 18 49 18q29 0 47 -18h51q32 0 50 -21t18 -49q0 -30 -18 -50.5t-50 -20.5h-35q-8 -189 -8 -379q0 -371 31 -744q5 -1 15 -1.5t18.5 -1.5t15.5 -3q26 -3 39 -26q13 -20 13 -41q0 -10 -3 -21q-6 -23 -24.5 -37t-44.5 -14q-3 0 -8.5 1 t-8.5 1q-10 2 -35 2q-45 0 -88 -14q-8 -4 -22 -4q-25 0 -42.5 15.5t-21.5 41.5q-5 26 6.5 50t40.5 32q1 1 4.5 2t4.5 2q-31 380 -31 758q0 193 8 385q-22 9 -33 31t-8 45z" />
<glyph unicode="J" horiz-adv-x="827" d="M-175 710.5q0 82.5 16 162t58 143t107 96.5q38 18 68 18q94 0 153 -145q74 -177 92 -379q0 -30 -16 -49q-20 -20 -51 -20q-28 0 -50.5 18t-25.5 49q-15 197 -90 354q-12 21 -16 21q-7 0 -23 -14q-21 -16 -41 -62q-28 -59 -37 -131q-4 -39 -4 -79q0 -112 35 -225 q49 -151 145 -245q76 -76 148 -76q51 0 98 41q55 47 73.5 121t22.5 180q3 70 3 142q0 297 -44 622q-16 2 -53 2h-49h-29h-2q-31 0 -49 21t-18 49q0 29 18 50.5t51 21.5h29q8 0 24.5 1t24.5 1q25 0 37 -2q25 0 37 -2q14 -2 43 -2q25 0 35 2q12 4 18 4q29 0 48 -19.5t22 -46.5 q3 -24 -8 -44.5t-37 -28.5l4 -29q27 -199 37 -416q0 -11 1.5 -59t2 -66t1.5 -61v-38v-30q-1 -25 -2 -62t-4 -69t-7 -63q-28 -197 -146 -293q-88 -72 -190 -72q-44 0 -90 16q-75 29 -138 87t-105.5 131.5t-70 150.5t-41.5 156q-15 85 -15 167.5z" />
<glyph unicode="K" horiz-adv-x="868" d="M-125 12q-8 28 6 52.5t43 33.5q8 4 10 4l-2 1076q-24 6 -38.5 24.5t-14.5 44.5q-3 28 19 47q22 25 51 25h59q28 0 48.5 -20.5t21.5 -51.5q0 -14 -2 -22v-82v-58q203 112 379 195q13 8 32 8q25 0 46.5 -17.5t27.5 -43.5q5 -22 -5.5 -41.5t-31.5 -28.5q-117 -59 -243 -123 q184 -483 448 -954q11 -21 11 -39q0 -16 -9 -31q-23 -37 -67 -37q-40 0 -58 35q-258 460 -452 959q-77 -42 -78 -43v-72l2 -735q11 0 31 -4q25 -3 41 -29q17 -26 10 -59q-6 -23 -26 -37.5t-46 -14.5q-10 0 -14 2q-10 2 -33 2q-37 0 -78 -14q-12 -4 -20 -4q-22 0 -42 15 t-26 38z" />
<glyph unicode="L" horiz-adv-x="827" d="M-260 1157q-2 26 12.5 45t40.5 23q21 3 39 6q17 20 51 20q25 0 43 -12q25 2 64 2h10q32 0 50 -21.5t18 -50.5q0 -28 -18 -48.5t-50 -20.5h-2h-10h-19q40 -391 40 -777q0 -131 -5 -262h47h62h55q251 -4 369 -8q32 -1 49.5 -23.5t17.5 -52.5q0 -26 -17.5 -46.5t-47.5 -20.5 q-2 0 -4 2q-175 6 -342 6q-47 0 -70 2h-80h-45v-10q-1 -31 -23.5 -49.5t-50.5 -18.5q-30 0 -51 21q-16 16 -16 39h-7q-29 0 -48 20.5t-21 46.5q-3 24 9.5 45t39.5 27q11 4 33 8q4 128 4 255q0 403 -39 783q-4 -2 -12 -2q-31 0 -52 22t-24 50z" />
<glyph unicode="M" horiz-adv-x="980" d="M-154 199q-2 28 16.5 51t51.5 24h4q-46 368 -46 722q0 59 1 118q0 26 16 45q6 23 27.5 38t46.5 15q39 0 57 -34q126 -225 234 -482q43 218 104 359q14 35 38.5 80t59.5 96.5t78.5 86t83.5 34.5q56 0 97 -66q20 -32 31.5 -83.5t14 -84t5.5 -94.5v-27q2 -49 2 -106 q0 -80 -4 -174q0 -10 -1 -32t-1 -32l-8 -319l-11 -309q4 0 29 -5q23 -3 41 -28q17 -30 8 -60q-6 -23 -24.5 -37t-44.5 -14q-3 0 -8.5 1t-8.5 1q-3 1 -9 2t-9 2q-18 -18 -49 -18q-29 0 -47 18q-41 0 -62 35q-14 25 -7 52t32 44q3 2 9 5.5t9 5.5l6 233l8 250q0 22 5 129 q6 138 6 241.5t-6 174.5q0 11 -3 26q-5 79 -16 107q-18 -15 -39 -47q-51 -69 -102 -215q-74 -217 -111 -508q-4 -32 -25.5 -50t-48.5 -18q-49 0 -65 49q-75 231 -197 482q10 -334 47 -611q8 -2 25 -2q31 -3 50.5 -22.5t19.5 -48.5q0 -26 -19.5 -49t-46.5 -23h-6 q-12 4 -166 4h-4h-2q-32 0 -49 20.5t-17 47.5z" />
<glyph unicode="N" horiz-adv-x="886" d="M-209 379q2 23 18 43t41 24v74q0 199 13 410q0 27 2 41q3 62 7 99.5t15.5 90t35.5 92.5t61 70q23 20 53 20q41 0 57 -36q156 -343 266 -676q39 -122 103 -346l2 -4q16 -60 29 -95q4 116 4 231q0 522 -78 1033q-6 34 16 59q23 29 62 29q24 0 40 -14.5t19 -38.5 q82 -539 82 -1078q0 -208 -12 -417q-1 -29 -22.5 -50.5t-49.5 -21.5q-17 0 -37 10q-105 66 -164 228q-23 62 -61 202q-21 82 -39 140q-99 316 -231 624q-21 -74 -21 -207q-2 -23 -2 -65q-9 -142 -8 -313v-95q4 0 11.5 1t10.5 1q6 2 17 2q26 0 44.5 -14t24.5 -37 q10 -29 -10 -59q-13 -25 -41 -29q-44 -8 -96 -8q-49 0 -111 10q-26 4 -40 24t-11 46z" />
<glyph unicode="O" horiz-adv-x="823" d="M-135 373q-8 60 -8 120q0 132 38 263q55 190 171 315q83 92 186 92q52 0 106 -33q66 -46 86 -120q8 -28 7 -56q0 -46 -21 -90q-16 -39 -55 -39q-41 0 -64 37q-11 18 -11 37q0 15 7 31q8 22 1 45t-25 35q-15 12 -33 12q-22 0 -51 -16q-86 -62 -150 -238q-53 -144 -54 -285 q0 -114 36 -225q17 -53 47 -94t76 -41h4q27 1 53.5 16.5t51 44.5t38 48t33.5 51q143 228 164 495q3 43 3 84q0 91 -14 172q-7 47 -17 80t-35 60.5t-60 27.5h-10h-5q-32 0 -53.5 26t-21.5 58q0 31 22.5 53.5t63.5 22.5q96 -1 160.5 -73t89.5 -204q20 -106 20 -217 q0 -93 -14 -188q-27 -181 -111 -358q-101 -210 -223 -293q-60 -45 -139 -45q-101 0 -168 73q-98 105 -121 316z" />
<glyph unicode="P" horiz-adv-x="935" d="M-425 962q13 128 75 224q64 100 171.5 155.5t233.5 55.5q62 0 135 -17q132 -35 237.5 -132.5t152.5 -229.5q32 -85 31 -187q0 -62 -11 -131q-37 -193 -123 -288q-82 -88 -212.5 -145.5t-289.5 -76.5q9 -140 11 -167q0 -33 -17 -50q-20 -20 -51 -20q-29 0 -51 17.5 t-25 49.5q-1 23 -4 83t-4 96q-19 19 -22 47q-3 31 16 53q-15 343 -18 684q-3 26 18 47q18 21 51 21q29 0 50.5 -18t21.5 -50q3 -326 18 -651q51 6 106 19.5t128.5 41.5t133 80.5t85.5 122.5q45 117 45 224q-1 42 -7 82q-24 143 -130 243q-57 52 -131 81t-152 29 q-145 0 -242 -100q-65 -68 -83 -174q-8 -47 -9 -95q0 -59 13 -117q23 -106 77 -189q12 -20 12 -38q0 -15 -8 -28q-20 -41 -67 -41q-37 0 -57 33q-61 92 -91 210q-21 83 -21 170q0 37 4 76z" />
<glyph unicode="Q" horiz-adv-x="940" d="M-207 899q60 246 168 377q60 72 148.5 118t189.5 56q28 4 43 4q72 0 131.5 -29.5t99.5 -78.5t68 -115.5t41.5 -137t15.5 -147.5q1 -21 1 -43q0 -160 -53 -317q-60 -177 -175 -318q-30 -36 -78 -80q100 -13 182 -45q27 -10 39 -33t9 -49q-4 -26 -22.5 -42.5t-41.5 -16.5 q-12 0 -24 6q-130 47 -263 47q-80 0 -178 -20q-6 -2 -18 -2q-17 0 -29 6q-121 3 -203 102q-17 22 -17 46q0 16 7 32q20 45 64 45q30 0 49 -24q55 -64 125 -64q8 0 12 2q7 1 21.5 3t21.5 3q86 25 169 106.5t130 158.5q132 210 132 464q0 17 -1 33q-6 152 -55 256 q-52 109 -164 109q-29 0 -59 -6q-65 -14 -118.5 -47.5t-89 -75.5t-64.5 -99.5t-45.5 -108t-31.5 -112.5q-22 -85 -22 -158q0 -78 24 -143q21 -57 64.5 -106t93.5 -49q11 0 31 4q12 6 24 6q23 0 41.5 -17t22.5 -43q3 -26 -8.5 -49t-38.5 -33q-37 -12 -72 -12q-82 0 -155 58 t-113 139q-55 111 -55 245q0 92 26 195z" />
<glyph unicode="R" horiz-adv-x="866" d="M-396 792q-2 31 -2 63q0 71 12 145q16 108 58 186q60 113 160.5 178.5t214.5 65.5q28 0 68 -7q139 -26 256.5 -131.5t158.5 -242.5q23 -81 23 -162q0 -151 -80 -301q-113 -206 -317 -312q88 -41 182 -108q34 -23 34 -57q0 -13 -5 -27q-7 -23 -25 -37t-39 -14t-39 12 q-116 85 -246 139q3 -51 13 -114q3 -32 -15 -50q-17 -20 -51 -20q-28 0 -51 17t-27 48q-38 323 -38 646q0 234 20 469q3 32 25 49.5t51 17.5q31 0 51 -20q16 -16 16 -49q-21 -222 -21 -459q0 -172 11 -352q115 37 206 115t144 184q54 108 54 219q0 33 -4 67 q-22 144 -128 236q-112 102 -231 102q-25 0 -37 -2q-57 -9 -107.5 -46.5t-84.5 -94.5q-46 -77 -63 -168q-11 -58 -11 -115q0 -31 4 -62q10 -86 26 -153.5t40 -128.5q12 -34 -7 -59q-19 -29 -57 -29q-23 0 -43 12.5t-31 32.5q-24 50 -42 133.5t-26 183.5z" />
<glyph unicode="S" horiz-adv-x="780" d="M-321 731q13 95 51.5 183t99.5 167q132 172 291 248q106 47 186 47q99 0 152 -65q37 -42 51 -105q10 -47 10 -89q0 -15 -2 -27q-4 -52 -18 -119q-48 -238 -172 -385q-28 -34 -66.5 -54t-75.5 -20q-46 0 -77 27.5t-41 78.5q-9 44 -9 90q0 149 93 326q18 35 57 35 q42 0 65 -37q9 -17 9 -34.5t-9 -34.5q-53 -103 -65 -205q0 -2 -1 -7t-1 -8q-5 -40 -5 -61q0 -16 3 -20q10 0 33 36q0 5 4 9q117 184 133 378q2 21 2 39q0 61 -21 88q-14 23 -51 23q-32 0 -84 -18q-128 -45 -252 -187q-133 -157 -151 -297q-3 -19 -2 -38q0 -59 26 -111 q35 -70 111 -121q49 -34 190 -96q68 -27 133 -62q179 -95 179 -223q-1 -53 -34 -92t-80.5 -57.5t-102.5 -20.5h-13q-137 0 -293 113q-29 23 -29 57q0 14 5 29q8 22 24.5 35.5t36.5 13.5q19 0 39 -13q125 -94 217 -94h2q62 4 78 23q6 4 6 14q0 29 -65 70q-59 39 -180 88 q-9 4 -39.5 18t-43 20t-38.5 19t-42 22.5t-37 23.5t-38 28q-88 71 -125 164q-27 69 -27 139q0 24 3 49z" />
<glyph unicode="T" horiz-adv-x="813" d="M-216 1094v14q0 33 8 62q10 35 30 63q23 31 62.5 50t66 24t78.5 12q3 0 8.5 1t7.5 1q58 7 109 12q1 29 22 46.5t47 17.5q25 0 45.5 -14.5t24.5 -39.5q147 5 180 5q122 0 242 -9q32 -3 50.5 -25.5t16.5 -51.5q0 -26 -16.5 -46t-46.5 -20q-1 0 -3 1t-3 1q-164 8 -244 8 q-89 0 -174 -6q3 -563 61 -1108q25 0 37 2h4q28 0 48 -22t20 -49q0 -28 -20 -48.5t-50 -21.5q-36 -4 -53 -4q-62 0 -137 16q-26 4 -40 24t-11 46q2 24 18 43.5t41 23.5q-56 545 -59 1090q-102 -7 -174 -25q-32 -8 -42 -20t-10 -48q0 -25 13 -116q9 -30 -13 -59 q-25 -29 -61 -29q-51 0 -64 53v4q-9 42 -13 71t-6 71z" />
<glyph unicode="U" horiz-adv-x="968" d="M-131 727q3 153 9.5 255.5t21.5 266.5q3 32 25 50t50 18q34 0 52 -21q17 -20 14 -49q-28 -333 -28 -557q0 -41 1 -78v-16q1 -43 2 -68t5 -70.5t10 -75.5t18 -69t27.5 -65.5t39.5 -51t54 -38.5q44 -21 84 -21q53 0 102.5 30.5t85 78t60 97.5t37.5 97q39 140 51 348 q0 143 6 275q1 32 23.5 51t50.5 19t47 -19q22 -19 22 -51q-4 -156 -8 -234q0 -284 37 -544q1 -8 1 -15q0 -26 -17 -45q-25 -28 -62 -28q-25 0 -40.5 14t-18.5 39q-1 4 -2 10.5t-2 9.5q-54 -112 -153.5 -192t-225.5 -80q-22 0 -76 8q-255 59 -293 471q-11 79 -11 195 q0 26 1 55z" />
<glyph unicode="V" horiz-adv-x="788" d="M-384 1118q0 52 9 103q8 52 37 89.5t72 37.5q33 0 69 -25q50 -36 82 -103.5t60 -168.5q7 -38 -13 -60q-19 -28 -59 -28q-53 0 -66 49q-16 64 -47 127q0 -5 -1 -12t-1 -9q0 -116 56 -321l4 -17q35 -127 55 -194.5t59.5 -173t83.5 -185.5q8 -12 13 -22q36 -75 67 -103 q12 -12 21 -12q16 0 33 49q1 1 2 5t2 6q61 131 110 309q88 316 88 641v2q-14 18 -14 39q0 16 8 33q16 43 62 43q20 0 36 -11q22 -14 48 -14q19 0 38 8q12 4 21 4q22 0 41.5 -15.5t25.5 -37.5q7 -27 -6 -51.5t-41 -36.5q-44 -14 -77 -14q-9 -386 -123 -732q-2 -4 -3.5 -8.5 t-4 -10t-3.5 -9.5q-12 -38 -19 -59t-22.5 -63t-28.5 -67.5t-33.5 -59t-40 -53t-46 -33t-53.5 -13.5q-46 0 -92 34q-36 27 -71 76.5t-50.5 80.5t-46.5 95l-4 9q-64 144 -113 305q-3 10 -9.5 29.5t-9.5 29.5q-21 66 -32 103.5t-27.5 99.5t-23.5 107q-8 44 -15 100 q-7 52 -7 101v7z" />
<glyph unicode="W" horiz-adv-x="1091" d="M-197 1335q0 26 21 47q18 21 51 21q29 0 50.5 -18t21.5 -50q0 -409 18 -686q13 -179 43.5 -301.5t106.5 -202.5q36 -41 75 -41q2 0 6.5 1t6.5 1q21 4 30.5 22.5t18.5 57.5q0 2 1 7.5t1 7.5q33 131 45 299q8 107 8 271q0 140 -6 321q-1 31 18.5 49t47.5 20q6 2 20 2 q24 0 40 -14.5t19 -38.5q3 -21 9.5 -62.5t9.5 -62.5q39 -245 53 -305q26 -112 68 -176q15 -26 38.5 -46t43.5 -20t32 35q29 75 34 185q2 42 2 81q0 62 -5 113q0 21 -2 31q-7 164 -12 219q-4 63 -6 110q-3 11 -3 20q0 27 21 48q17 20 49 20q25 0 47 -16h2h4h9h2q2 0 4.5 1 t3.5 1q15 6 31 6q41 0 59 -35q16 -26 6 -59q-6 -26 -33 -39q-25 -13 -55 -16q0 -26 4 -62q12 -173 12 -297v-34q0 -159 -28 -283q-23 -117 -105 -156q-41 -18 -77 -18q-69 0 -127 52t-99 132q-8 -86 -14 -127q-1 -7 -2 -22t-2 -23q-8 -64 -14 -98t-23 -85.5t-43 -84.5 q-51 -72 -150 -72q-39 0 -88 17q-210 90 -266 530q-33 268 -33 823z" />
<glyph unicode="X" horiz-adv-x="911" d="M-80 1235q-7 16 -7 31q0 21 13 39q22 36 64 36q37 0 55 -38q88 -206 238 -478q11 29 20 45q148 343 180 424q7 21 26.5 34t43.5 13q41 0 61 -30q17 -27 4 -58q-56 -145 -180 -424q-11 -26 -34 -78t-35 -77q55 -95 206 -350q96 -156 146 -244q12 -18 12 -36q0 -16 -10 -32 q-9 -17 -27.5 -28t-38.5 -11q-38 0 -59 35q-65 113 -145 244q-28 48 -82 137.5t-72 120.5q-97 -243 -145 -401q-7 -23 -26 -36.5t-42 -13.5q-37 0 -61 31q-19 25 -9 57q55 185 195 517q-181 320 -291 571z" />
<glyph unicode="Y" horiz-adv-x="784" d="M-254 692q-6 78 -6 157q0 190 33 382q10 53 59 53q39 0 62 -29q22 -25 16 -59q-28 -168 -28 -349q0 -33 1 -67q0 -6 1 -19t1 -20q1 -53 3 -81.5t8.5 -76t23 -80t41.5 -52.5q36 -31 86 -31t103 26t90 60q78 75 137 199q-1 33 -17 317l-6 96l-6 96q-3 30 17 50t51 20 q29 0 50.5 -17.5t22.5 -49.5q2 -27 5.5 -80t5.5 -80q2 -45 7 -139t7 -142q20 -24 20 -51q0 -15 -6 -31q-2 -4 -5 -12t-5 -12q1 -36 1 -71q0 -219 -44 -359q-12 -39 -29.5 -77.5t-49 -91.5t-79 -95t-104.5 -62q-35 -12 -74 -12q-94 0 -157 63q-48 54 -48 125v8 q1 31 23.5 49.5t50.5 18.5q30 0 51 -21q20 -20 17 -49q0 -22 12 -37q16 -16 47 -16q28 0 49 12q54 29 107 115q63 110 80 268q-45 -48 -88 -80q-113 -77 -236 -77q-81 0 -143 36q-39 22 -67.5 58.5t-43.5 69.5t-26 85t-14 80.5t-7 81.5z" />
<glyph unicode="Z" horiz-adv-x="700" d="M-338 1220q4 38 21 60q52 70 172 70q23 0 69 -4h2q149 -8 307 -52q12 -4 17 -4q30 -8 45 -13t40.5 -16.5t39.5 -24t26 -34t15 -47.5q2 -14 2 -30q0 -27 -6 -57q-10 -48 -21 -76t-35 -83q-2 -8 -10 -24q-55 -135 -131 -293q-81 -164 -147 -287q-5 -9 -35 -59 q-55 -94 -68 -133q55 9 127 39q8 4 14 6q130 52 144 88q2 4 2 12q-7 17 -7 32q0 21 13 40q23 37 64 37q37 0 53 -39q16 -38 16 -74t-17 -70q-33 -68 -126 -114q-94 -49 -172 -76t-160 -27q-29 0 -43 2q-30 3 -51.5 23.5t-18.5 48.5q6 55 28 115.5t44 101t59 102.5 q8 16 26 47t26 46q110 210 213 444l6 16q33 73 45 109q2 4 6 16q21 57 21 79q0 4 -1 7q-7 22 -71 31q-12 3 -21 6q-67 17 -118 25q-64 12 -129 18q-4 0 -14 1t-15 1q-36 4 -55 4q-23 0 -31 -2q-15 -3 -21 -12q-7 -14 6 -57q1 -1 2.5 -4.5t2.5 -4.5q9 -34 36.5 -148.5 t30.5 -137.5q5 -32 -12 -49q-21 -21 -47 -21q-27 0 -51 17t-31 49q-12 50 -23 84q-18 68 -27 106q-9 36 -19 94q-7 43 -7 75q-1 11 0 21z" />
<glyph unicode="[" />
<glyph unicode="\" />
<glyph unicode="]" />
<glyph unicode="^" />
<glyph unicode="_" horiz-adv-x="882" d="M10 37q0 26 17 45.5t47 19.5h4q105 -6 420 -6q71 0 106 2h2q31 0 48.5 -20t17.5 -47q0 -30 -18 -52t-50 -22q-35 -2 -106 -2q-318 0 -420 6q-33 1 -51.5 23.5t-16.5 52.5z" />
<glyph unicode="`" />
<glyph unicode="a" horiz-adv-x="688" d="M-104 602q43 304 196 467q64 64 125 64q35 0 74 -27q59 -48 59 -174q13 49 64 49h6h6q34 0 51 -20q19 -19 19 -48q0 -17 -11 -204q-7 -101 -9 -159q-1 -23 -1 -51q0 -42 2 -95q3 -88 21 -161.5t51 -140.5q8 -16 8 -32q0 -18 -10 -37q-23 -37 -66 -37q-39 0 -55 37 q-67 132 -82 295q-25 -72 -41 -109q-4 -7 -20 -43q-14 -32 -22.5 -49.5t-23.5 -44t-32.5 -44.5t-38.5 -30q-29 -16 -60 -16q-38 0 -73 22.5t-60 61.5q-90 139 -90 352q0 82 13 174zM45 279q22 -82 41 -115q8 -17 16 -17q7 0 18 17t17 31q12 23 24.5 53t19.5 49t20.5 59 t17.5 52l6 24q62 185 107 402q-19 -19 -49 -19t-51.5 18t-22.5 50v12q1 22 1 40q0 35 -3 52q-14 -11 -51 -65l-2 -4q-59 -81 -88 -195q-41 -146 -41 -274q0 -90 20 -170z" />
<glyph unicode="b" horiz-adv-x="743" d="M-205 1286q0 26 21 47q21 25 47 25l4 -2h27q30 0 57 6q6 2 18 2q24 0 39 -10q19 -9 29 -33v-2q0 -1 1 -3t1 -3q3 -16 0 -35q-8 -180 -12 -268q111 114 241 114q40 0 84 -12q126 -34 172 -174q25 -76 26 -180q0 -86 -18 -191q-28 -169 -100.5 -308.5t-179.5 -231.5 q-56 -47 -113 -47q-41 0 -69 26.5t-39 73.5q-2 4 -2 10v-35q3 -29 -17 -49q-17 -20 -51 -20q-29 0 -51 17.5t-23 49.5q-9 246 -9 525q0 76 1 155q-6 19 0 37q1 105 15 444h-3h-26q-31 3 -50.5 23t-19.5 49zM20 745q0 -22 -1 -53q0 -125 4 -395q6 59 28 143q17 52 68 52 q36 0 61 -29q18 -27 8 -60q-27 -93 -27 -184q0 -30 3 -61q0 -11 2 -21q7 7 10 13q2 2 2 4l10 -9l-2 2l-2 3l-4 4q38 38 66 73q107 142 145 355q12 64 17 116q4 37 4 78q0 16 -1 34q-2 60 -24.5 102.5t-64.5 60.5q-27 12 -56 12q-41 0 -81 -24t-71.5 -63t-54 -77t-39.5 -76z " />
<glyph unicode="c" horiz-adv-x="698" d="M-98 351q-11 69 -11 140q0 83 15 168q13 75 38.5 149t63.5 143.5t93.5 121t119.5 70.5q38 12 74 12q57 0 101 -31.5t69.5 -77t42.5 -106.5t23 -107.5t8 -93.5q9 -15 12 -34q0 -29 -19 -48q-24 -24 -53 -24l-33 -2h-34h-2q-28 0 -48.5 20t-21.5 49q-1 25 15 44.5t40 25.5 q-10 102 -38 173t-74 71q-35 0 -78 -43q-58 -55 -99.5 -145.5t-62.5 -200.5q-11 -65 -12 -130q0 -133 49 -262l2 -10q29 -73 50 -93q17 -17 38 -17q2 0 6.5 1t7.5 1q20 4 37.5 17t32.5 35t23.5 38t21.5 43q6 12 8 14q15 37 55 37q43 0 66 -37q11 -18 11 -36q0 -16 -9 -33 q-43 -87 -91 -142.5t-120 -73.5q-24 -6 -51 -6q-110 0 -174 109q-69 120 -92 271z" />
<glyph unicode="d" horiz-adv-x="770" d="M-145 567q-17 105 -17 191q0 104 24 180q46 140 173 174q43 12 84 12q130 0 241 -114q-4 88 -12 268q-3 19 0 35q0 1 1 3t1 3v2q10 24 29 33q15 10 39 10q12 0 18 -2q27 -6 58 -6h24q1 0 3 1t3 1q28 0 48 -23t20 -49q0 -29 -19.5 -49t-50.5 -23h-26h-2q12 -302 14 -444 q6 -18 0 -37q1 -79 1 -155q0 -279 -9 -525q-1 -32 -23 -49.5t-51 -17.5q-34 0 -51 20q-20 20 -17 49v35q0 -1 -1 -4.5t-1 -5.5q-11 -47 -39 -73.5t-69 -26.5q-57 0 -113 47q-107 92 -179.5 231.5t-100.5 308.5zM-4 582q38 -213 145 -355q28 -35 66 -73l-8 -9l4 5l6 4 q0 -2 2 -4q1 -1 4.5 -6t5.5 -7q2 10 2 21q3 30 3 61q0 91 -27 184q-10 33 8 60q25 29 61 29q51 0 68 -52q23 -91 29 -143q3 199 3 332q0 66 -1 116q-17 38 -39.5 76t-54 77t-71.5 63t-81 24q-28 0 -55 -12q-90 -39 -90 -205q0 -79 20 -186z" />
<glyph unicode="e" horiz-adv-x="782" d="M-119 682q0 54 43 68v2q18 385 246 385q72 0 125 -56q55 -61 75 -171q14 -74 14 -145q0 -35 -3 -69q0 -22 -12 -37q-13 -49 -66 -49q-72 2 -219 2h-16q6 -126 32 -237q31 -150 84 -207q34 -37 68 -37q53 0 108 90q107 181 123 502q3 32 25.5 50t50.5 18q33 0 51 -21 q17 -17 17 -49q-13 -200 -52.5 -358t-134.5 -277q-81 -102 -186 -102q-27 0 -41 4q-117 28 -188 164q-95 189 -101 464q-43 14 -43 66zM68 756h12q109 0 164 -2q1 16 1 33q0 45 -8 99q-11 72 -40 103q-16 19 -35 19q-38 0 -63 -66.5t-31 -185.5z" />
<glyph unicode="f" horiz-adv-x="634" d="M-217 711q0 27 17 47t50 20h3h18h2q0 166 10 291q3 39 12 78.5t29.5 88.5t61.5 83t98 41q3 0 10 1t10 1q152 0 211 -258l7 -14l12 -58l8 -51q17 -4 29.5 -17.5t17.5 -29.5q9 -29 -6 -53.5t-43 -34.5q-43 -15 -76 -15h-16q-31 3 -50.5 23t-19.5 49q-3 30 25 55l-6 31 l-7 37q-1 2 -3 7t-3 7l-2 9q-18 105 -51 147q-17 21 -31 21q-16 0 -32.5 -19.5t-24.5 -44.5q-14 -34 -20 -77t-6 -82.5t1 -84.5v-75q0 -7 -1 -21.5t-1 -21.5v-19q12 0 33 -1t33 -1q9 -1 27.5 -2t27.5 -2q99 -6 101 -6q48 0 81 8q3 0 8.5 1t8.5 1q30 0 50 -21.5t22 -48.5 q3 -27 -11 -45.5t-41 -23.5q-44 -10 -114 -10q-37 0 -107 4q-5 0 -15.5 1t-15.5 1q-15 1 -45 2t-45 2v-182v-46q0 -233 25 -346q2 -9 2 -18q0 -26 -16 -43q-25 -29 -60 -29q-53 0 -63 53q-15 70 -22.5 159.5t-8 136.5t-0.5 161q2 25 2 76v84h-4h-19q-32 1 -49.5 23t-17.5 51 z" />
<glyph unicode="g" horiz-adv-x="782" d="M-100 477q11 60 55 106t104 46q21 0 39 -6q30 -9 56 -31.5t42.5 -47t32 -61t23 -59.5t16.5 -57q10 -37 -8 -60q-22 -28 -61 -28q-53 0 -66 49q-16 55 -45 114q0 1 -1 4t-1 5l-20 30h-3q-12 0 -24 -24q-8 -19 -8 -47q0 -53 32 -138q26 -66 94 -143.5t128 -77.5q31 0 59 31 q26 29 43.5 71.5t26 79t13 95.5t5 87.5t0.5 88.5v22q0 109 -8 226q-80 -44 -90 -47q-136 -56 -228 -56q-52 0 -90 17q-58 25 -75 75q-11 28 -11 58q0 41 21 86q26 59 78.5 99.5t130.5 78.5q140 67 262 67q19 0 51 -4q7 0 19 -4q1 0 4 -1t4 -1q4 0 10 -2l4 -2q2 0 6 -1t6 -1 l4 -2l17 -2l18 -4q25 -6 41 -29q17 -26 10 -59q-4 -22 -22 -35.5t-43 -15.5q4 -36 4 -58q12 -140 17 -225q2 -54 2 -124v-84q-3 -123 -19 -224q-35 -216 -135 -295q-54 -45 -127 -45q-75 0 -148 45q-130 76 -202 229q-51 109 -51 211q0 40 8 80zM76 799q6 -6 26 -6 q11 0 19 2q54 3 131 28q11 8 31 15q80 35 112 65q15 15 19 17l-2 4q0 23 -4 63q-138 -7 -277 -102q-47 -35 -53 -64q-6 -14 -2 -22z" />
<glyph unicode="h" horiz-adv-x="763" d="M-272 1321q6 23 24.5 37t44.5 14q3 0 8.5 -1t8.5 -1q4 -2 14 -2q12 0 18 2q21 4 31 10q2 0 4.5 1t3.5 1q17 7 29 7q28 0 50 -19t22 -51q1 -109 10 -488h14q92 15 150 15q72 0 139 -23q74 -26 123.5 -82.5t69.5 -138.5q18 -70 20 -164q1 -31 1 -60q0 -58 -3 -108v-41 q-5 -164 -33 -411q-4 -30 -27.5 -48t-50.5 -18q-30 0 -51 21q-17 17 -14 49q37 276 37 499q0 87 -6 166q-6 87 -36 136.5t-87 68.5q-44 13 -92 13q-38 0 -136 -13q-6 -2 -14 -2q1 -45 18 -649q3 -30 -16 -49q-21 -21 -51 -21t-51.5 18t-22.5 50q-8 203 -20 629q-3 1 -17 8 q-24 14 -33 41q-8 25 7 55q11 20 41 33q-6 205 -9 424h-20q-33 0 -49 4q-25 3 -41 29q-17 28 -8 59z" />
<glyph unicode="i" horiz-adv-x="307" d="M-227 1198.5q0 46.5 29 84.5t71 63q18 10 36.5 7.5t30 -16.5t17 -30t-1 -33.5t-25.5 -28.5q-1 -1 -5 -4q-42 -31 -23 -39q8 -4 29.5 10.5t31.5 24.5q38 30 57 72q14 30 10 47t-15.5 25.5t-33 9.5t-41.5 -2t-42 -9q-34 -9 -56 15t-15.5 56.5t40.5 41.5q65 19 116 19 q104 0 146 -82q18 -33 18 -71q0 -8 -1 -17q-5 -47 -24 -87t-50 -75q-24 -27 -54.5 -48.5t-65.5 -35.5q-27 -10 -55 -10q-9 0 -17 1q-36 4 -66 29q-41 36 -41 82.5zM-124 563q-2 57 -1 120q0 116 6 255q1 32 23 51t51 19q30 0 51 -21q17 -17 17 -49q-7 -142 -6 -261 q0 -60 1 -114q5 -162 27 -373q3 -29 -14 -49t-51 -20q-29 0 -51 17.5t-25 49.5q-22 215 -28 375z" />
<glyph unicode="j" horiz-adv-x="698" d="M-414 762q2 52 26.5 99.5t72.5 72.5q16 8 34 8q27 0 46 -17t24 -40q3 -11 3 -21q0 -36 -36 -53q-25 -13 -25 -69q0 -33 9 -82q1 -8 2 -11q1 -2 2 -6t2 -6q21 -109 68 -201q47 -94 116 -176q2 -2 6.5 -6t6.5 -6q28 -33 45.5 -51.5t49 -41t54.5 -22.5h4q58 4 64 168 q0 19 2 25q6 89 6 170q0 50 -2 96q-3 105 -22 263.5t-42 272.5h-2q-7 0 -23 -1t-24 -1q-3 0 -10 1t-10 1q-32 1 -51 24t-17 52q0 27 17.5 46.5t48.5 19.5h4h18q31 0 45 2h17q19 16 47 16t43 -18h57h35h2q31 0 48.5 -20t19.5 -48q0 -30 -19 -52t-51 -22q-5 0 -16.5 -1 t-16.5 -1h-16q29 -160 47 -360q15 -163 15 -289q0 -29 -1 -55l-2 -6q-1 -31 -2 -52t-4 -58t-7 -63.5t-11.5 -62t-17.5 -60.5t-25.5 -51.5t-34.5 -43t-45 -27t-56 -10.5q-34 0 -63 10q-60 17 -112.5 62t-112.5 116q-96 115 -154 250q-22 53 -38.5 103.5t-28.5 114.5 q-10 54 -10 99q0 9 1 19z" />
<glyph unicode="k" horiz-adv-x="716" d="M-63 39v6q0 37 36 55l-4 480l-4 481q-24 24 -24 51q0 17 10 35q19 37 63 37q9 0 21 -4q20 0 35 -9q3 0 8.5 1.5t7.5 1.5q38 0 66 -25q20 -20 20 -45q3 -31 -20 -57q-15 -18 -46 -21v-14q48 17 103 30q10 2 27 7.5t24 7.5q49 14 80 26q36 12 115 31q12 4 16 4 q29 0 48.5 -20.5t21.5 -46.5q3 -24 -9.5 -45.5t-39.5 -28.5q-56 -13 -78 -21q-52 -17 -68 -22q-18 -5 -52 -16t-42 -13l328 -801q13 -33 -5 -57q-19 -29 -61 -29q-51 0 -70 45l-221 539l-104 256q-8 -4 -10 -6l4 -375l2 -368q25 -4 41 -24t18 -46q0 -29 -20 -49 q-20 -23 -52 -23h-94q-29 0 -49 20.5t-22 51.5z" />
<glyph unicode="l" horiz-adv-x="565" d="M-147 1300q6 23 25.5 37.5t45.5 14.5q11 0 15 -2q5 0 14 -1t14 -1q33 0 74 12q6 2 20 2q26 0 44.5 -18.5t21.5 -43.5q5 -25 -7.5 -46.5t-41.5 -30.5q-3 -1 -13 -4.5t-16 -4.5q-3 -91 -4 -213q0 -101 3 -223q5 -270 18 -426q2 -10 2 -35q2 -29 2 -42t4 -42t9 -44.5 t12.5 -34t20.5 -27t29 -8.5q17 0 25 2q37 11 56 71q20 60 20 138v17q0 67 -4 123q-4 62 -11 103q-6 32 15 60q23 29 61 29q25 0 41 -14.5t21 -39.5q15 -86 19 -194v-30q0 -94 -20 -192q-22 -114 -73 -159q-66 -56 -148 -56q-57 0 -103.5 27.5t-72.5 77.5q-27 52 -39 178 q0 4 -1 13.5t-1 13.5q-16 170 -20 262q-6 109 -6 329q0 32 -1 60q0 176 3 274h-2q-24 3 -41 27q-17 30 -10 61z" />
<glyph unicode="m" horiz-adv-x="880" d="M-74 1065q6 29 37 45q38 18 80 18q57 0 107 -35.5t81 -97.5q32 -63 76 -172q49 150 113 264q75 122 158 134h18q42 0 72 -29.5t37 -79.5q6 -40 11 -85.5t7.5 -78t5.5 -89t4 -79.5t3 -89.5t3 -80.5v-45q4 -108 4 -230q0 -152 -6 -327q-1 -32 -23 -50.5t-50 -18.5 q-32 0 -52 20q-18 18 -18 49q7 167 7 335q0 261 -17 525q-1 10 -2 31.5t-2 32.5q0 64 -9 123q-1 -1 -2 -3t-2 -3q-1 -2 -6.5 -8t-7.5 -11q-9 -12 -35 -65q-87 -185 -129 -392q-13 -53 -63 -53q-24 0 -45.5 14t-28.5 37l-49 123l-49 123q-1 2 -4.5 10t-4.5 13q-31 91 -59 127 v-92q0 -321 18 -639q0 -31 -16 -50q-20 -20 -51 -20q-28 0 -50.5 18t-23.5 49q-20 327 -20 680v93q-23 30 -17 59z" />
<glyph unicode="n" horiz-adv-x="686" d="M-139 1145q0 22 16 41q18 18 43 18h2q40 0 80 4q25 6 49 -8q38 -19 38 -83q0 -12 -1 -25q-2 -23 -6 -39q0 -7 -2 -11l-4 -36l26 26q30 25 45 35q44 29 90 29q26 0 52 -9q54 -19 92.5 -66t58.5 -103q36 -104 50 -223t20 -275q2 -53 2 -110q0 -187 -18 -416q-3 -33 -25 -52 q-28 -21 -59 -18q-31 0 -50 24q-18 21 -18 63v13q24 208 24 394t-24 350l-2 24q-29 229 -84 250q-15 6 -29 6q-34 0 -67 -33q-40 -41 -66 -119.5t-26 -125.5q10 -289 59 -541q6 -35 -14 -59t-50 -31h-14q-25 0 -43 14.5t-22 38.5q-54 278 -60 553l-2 2q-6 21 0 45v2v2v61 q0 149 12 267q0 8 1.5 23t1.5 22l2 16h-17q-25 0 -42.5 17t-18.5 43z" />
<glyph unicode="o" horiz-adv-x="759" d="M-88 362q-12 64 -12 130q0 88 22 181q38 163 148 267q64 61 145 61q79 0 127 -67q34 -50 42 -120q5 -41 5 -75q0 -23 -3 -43q-6 -46 -17 -88q-6 -23 -23.5 -37t-42.5 -14q-37 0 -61 31q-20 26 -11 59q10 27 10 96q-1 3 -1 7q0 75 -19 100q-6 8 -14 8q-18 0 -45 -27 q-76 -73 -109 -223q-13 -56 -12 -113q0 -66 16 -135q34 -154 117 -208q27 -17 51 -17q40 0 79.5 47t68.5 118.5t49 140.5t31 128q13 80 13 152q0 78 -15 147q-47 203 -152 203h-2q-32 0 -50 21t-18 49q-2 29 16.5 50.5t51.5 22.5h6q111 0 186 -84q79 -91 103 -246 q15 -97 15 -182q0 -50 -5 -96q-20 -163 -96 -348q-40 -94 -88 -157.5t-119 -90.5q-46 -16 -82 -16q-62 0 -116.5 36t-91.5 93.5t-61.5 118.5t-35.5 120z" />
<glyph unicode="p" horiz-adv-x="724" d="M-96 -195v6q0 39 39 58q-23 420 -23 790v84q-3 19 0 37v2q3 162 6 289q1 32 22.5 51t49.5 19q30 0 53 -23q20 -20 17 -47v-31q90 84 196 84q51 0 101 -18q60 -22 102.5 -68t62.5 -102.5t32 -123.5q9 -56 9 -111v-19q-2 -65 -4 -127q-4 -48 -10.5 -94.5t-24.5 -117 t-43.5 -128.5t-70 -115t-101.5 -90q-43 -24 -92 -24q-47 0 -86 25t-61 69q0 1 -1 3t-1 3q2 -70 10 -215q21 -6 34 -24t15 -42q0 -32 -20 -49q-19 -22 -47 -22h-5q-18 2 -57 2h-31h-4q-28 0 -47.5 20t-19.5 49zM63 764q-1 -30 -1 -78q0 -118 4 -342q2 8 6 25.5t6 25.5 q12 51 65 51q40 0 62 -28q19 -25 10 -60v-2q-23 -88 -23 -144q0 -38 11 -62q8 -23 22 -23q21 0 51.5 31t51.5 65q92 148 98 373v16q4 31 4 67q0 15 -1 31q-2 54 -8 103.5t-30 92t-63 61.5q-34 18 -66 18q-64 0 -118.5 -66.5t-80.5 -154.5z" />
<glyph unicode="q" horiz-adv-x="712" d="M-221 334q-5 47 -5 93q0 128 39 248q53 163 167 283q120 125 215 125q30 0 51 -8q33 -12 54.5 -36.5t30 -51t10 -60.5t-1 -56t-7.5 -46q0 -2 -1 -6t-1 -6t-2 -2q0 -6 -2 -8q-24 -80 -68 -148q-19 -32 -59 -32q-47 0 -66 36q-8 15 -8 30q0 19 12 38q38 60 56 123 q9 40 9 62q0 16 -5 22q-4 4 -13 4h-2q-24 -2 -73 -51q-7 -3 -9 -8q-70 -64 -118 -162q-69 -136 -69 -294q0 -68 13 -140q0 -1 1 -5t1 -6q28 -153 70 -153q4 0 16 4q55 27 117 153q2 3 8 15q99 197 164 438q13 49 66 49h10h4q31 0 51 -20t17 -49q-9 -331 -13 -828 q89 -6 160 -26q29 -7 43 -29.5t12 -48.5q-1 -26 -17 -43.5t-38 -20.5q-17 0 -25 2q-92 26 -188 29q-37 2 -62.5 27.5t-25.5 60.5q0 371 2 467q-77 -173 -156 -250q-72 -72 -151 -72q-66 0 -111 48q-28 28 -48 66t-30.5 85.5t-15 79.5t-8.5 78z" />
<glyph unicode="r" horiz-adv-x="651" d="M-201 1012q0 27 19 49q22 22 49 22h4q8 -2 18 -2q23 0 60 13q12 4 20 4q21 0 37 -13q37 -18 37 -59v-158q92 144 203 189q44 18 78 18q50 0 77 -37q36 -47 36 -147q0 -130 -60 -350q2 -1 6 -2t6 -2q29 -10 40.5 -33t8.5 -49q-5 -26 -22.5 -43t-42.5 -17q-7 0 -23 4 q-58 21 -114 21h-5q-32 0 -50.5 20.5t-18.5 48.5t18.5 50t50.5 22h2h3q45 142 55 246q6 56 6 89q0 18 -2 30q-3 -2 -9.5 -6.5t-9.5 -6.5q-14 -7 -26 -16q-63 -52 -135 -184q-57 -110 -70 -189q0 -9 6 -471q0 -31 -18 -49q-20 -20 -51 -20q-28 0 -50 18.5t-22 50.5 q-3 171 -6 371q-10 13 -10 41q4 42 8 67q0 62 -1 198t-1 210h-9h-22q-31 3 -50.5 23t-19.5 49z" />
<glyph unicode="s" horiz-adv-x="716" d="M-197 551q24 221 256 477q63 68 142.5 119t148.5 51q78 0 129 -72q35 -52 45 -120q4 -27 5 -53q1 -40 -9 -79q-14 -65 -36 -120t-50 -99q-21 -34 -59 -34q-46 0 -66 38q-9 17 -9 33q0 18 11 35q76 124 76 222q0 38 -12 73q-11 31 -37 31q-35 0 -89 -43t-95 -90 q-20 -21 -49 -58.5t-74 -103.5q-45 -68 -72 -142q-21 -59 -21 -108q0 -13 1 -25q9 -66 67 -106q28 -19 74 -19q32 0 139 21q110 18 148 18q132 0 159 -118q4 -18 4 -36q0 -44 -24 -87q-34 -61 -109 -105q-92 -57 -215 -57q-36 0 -73 6q-26 3 -41 20.5t-13 42.5 q2 29 23.5 51.5t52.5 22.5h12q12 -2 39 -2q60 0 115 25q25 10 58 35t34 43q0 10 -8 14q-4 8 -29 8q-9 0 -78 -12q-18 -6 -28 -6q-8 -1 -24.5 -4.5t-24.5 -4.5q-96 -14 -127 -14h-4q-109 0 -185 82q-80 93 -80 211q0 19 2 39z" />
<glyph unicode="t" horiz-adv-x="458" d="M-250 1040q2 27 19.5 47.5t48.5 20.5l2 -2h57q3 115 12 223q3 32 25.5 50t50.5 18q33 0 51 -21q18 -18 15 -49q-1 -26 -6 -100t-7 -117q7 1 20.5 3t20.5 3q50 8 76 8q15 0 23 -2q34 -4 55 -20.5t26.5 -40t7.5 -52t-1 -55.5q-2 -19 -2 -35.5t2 -29.5q1 -7 1 -14 q0 -26 -18 -46q-25 -28 -61 -28q-25 0 -40.5 14t-18.5 39q-1 3 -2.5 9t-2.5 9q-7 57 -7 85q0 11 1 18h-2h-14q-37 -4 -68 -6v-51q0 -145 9 -351q2 -16 2 -51q2 -46 3.5 -69t5.5 -68.5t8.5 -72t13 -67.5t19 -67.5t26.5 -59.5t35.5 -56t46 -45.5t57.5 -37.5q37 -18 37 -51 q0 -9 -3 -20q-4 -26 -25 -44t-46 -18q-13 0 -33 8q-66 33 -115 86t-77.5 109.5t-48 134.5t-28 139.5t-14.5 145.5q-14 199 -14 422v80h-53q-33 1 -51.5 23t-18.5 52z" />
<glyph unicode="u" horiz-adv-x="694" d="M-172 885q9 51 63 51q39 0 62 -29q18 -24 12 -59q-28 -124 -28 -243.5t28 -235.5q9 -41 30.5 -89.5t58.5 -91.5t75 -43q27 0 59 29q110 108 142 399q9 73 9 146q0 152 -38 307q-10 33 10 59q25 29 62 29q24 0 41.5 -13.5t23.5 -37.5q42 -174 43 -347q0 -129 -24 -257 q-11 -57 -22.5 -103.5t-33 -105t-47.5 -101.5t-65.5 -80.5t-87.5 -54.5q-37 -12 -72 -12q-64 0 -124 43t-100.5 105.5t-64.5 134.5q-47 148 -47 310q0 140 35 290z" />
<glyph unicode="v" horiz-adv-x="696" d="M-195 1051q1 32 23 49.5t51 17.5q34 0 51 -20q19 -19 19 -49q-2 -61 -3 -126q0 -194 21 -419q1 -9 2 -26.5t2 -26.5q11 -131 25 -213q14 -84 47 -84h4q26 2 59 57q8 8 9 10q52 72 93.5 160t66.5 162t48 180t33.5 169t26.5 175q3 24 19 37.5t40 13.5q39 0 62 -26 q18 -20 18 -45q0 -7 -2 -15q-27 -179 -53.5 -309.5t-67.5 -251.5q-49 -137 -110 -244l-2 -4q-21 -34 -28 -45t-28 -41.5t-35 -45.5t-35.5 -34t-43.5 -30q-36 -19 -72 -19q-86 0 -143 80q-21 29 -34 71t-17.5 74t-8.5 80q0 17 -4 49q-35 317 -35 579q0 56 2 110z" />
<glyph unicode="w" horiz-adv-x="1034" d="M-82 504q23 -170 80 -314q26 -67 58 -112.5t81 -65.5q35 -14 70 -14q48 0 88 30t64 70t43.5 95.5t27.5 90t14 70.5q15 105 27 228q13 -42 24 -69.5t30.5 -62.5t46.5 -56t61 -27q8 -2 26 -2q34 0 62 18.5t44.5 41t31.5 62t20.5 59.5t13.5 56q34 154 33 304q0 42 -2 83 q27 10 40 34.5t7 51.5q-6 23 -26 38t-43 15q-13 0 -19 -2q-37 -12 -69 -12q-19 0 -27 2h-6q-28 0 -48 -23t-20 -49q0 -28 19.5 -47t50.5 -24q1 -33 1 -65q0 -106 -15 -199q-10 -67 -31 -142l-2 -6q-11 -39 -19 -47q-6 6 -12 16q-86 172 -145 502q0 7 -4 19v2v4 q-10 53 -62 53q-32 0 -61 -29q-21 -27 -15 -59q-12 -287 -39 -543q-16 -156 -49 -248q-11 -34 -30.5 -59t-38.5 -25q-20 0 -39 29q-94 147 -115 461q-4 63 -4 132q0 161 20 355q3 30 -14 50t-49 20q-28 0 -51.5 -18.5t-26.5 -49.5q-20 -185 -20 -344q0 -151 18 -278z" />
<glyph unicode="x" horiz-adv-x="708" d="M-182 1055q-7 16 -7 30q0 20 13 39q23 37 63 37q37 0 56 -37q65 -145 176 -344q59 94 215 318q23 30 59 30q22 0 41.5 -11t28.5 -30q7 -13 7 -27q0 -18 -13 -36q-160 -223 -260 -385q71 -126 110 -197t95 -184t94 -209q13 -34 -4 -57q-21 -31 -62 -31q-23 0 -42 12.5 t-28 34.5q-82 201 -243 486q-93 -188 -137 -367q-4 -24 -21.5 -37.5t-42.5 -13.5q-39 0 -61 28q-19 25 -13 60q51 222 193 477q-142 251 -217 414z" />
<glyph unicode="y" horiz-adv-x="706" d="M-147 438q-19 123 -19 279.5t19 345.5q3 32 25 49.5t50 17.5q32 0 52 -20q17 -21 14 -49q-19 -203 -19 -353q0 -78 5 -141v-4q2 -32 4 -50t7 -52.5t11 -56t17.5 -48.5t26.5 -42.5t36.5 -26.5t48.5 -11q4 0 13 1.5t14 1.5q64 9 107 61t60.5 118.5t18.5 143.5v22 q0 117 -18 322q-1 18 -3.5 50t-3.5 46l-2 13q-1 2 -2 7t-2 7q-1 7 -1 13q0 31 24 55q23 20 53 20q44 0 60 -39q6 -10 10 -33v-8v-16q36 -193 65 -449q1 -9 3 -28.5t3 -28.5q10 -96 14 -140q4 -39 4 -105v-16q-1 -78 -13 -138q-17 -87 -72.5 -164t-143.5 -107 q-38 -10 -71 -10q-84 0 -133 55q-35 39 -35 96q0 13 2 27q10 53 59 53q39 0 62 -26q18 -20 18 -45q0 -7 -2 -15v-4l3 -1q3 -1 7 -1q18 0 45 10t35 15q41 27 66 82q31 66 31 172q-46 -69 -110.5 -109.5t-139.5 -46.5q-4 0 -12.5 -1t-12.5 -1q-109 0 -183.5 81t-94.5 222z" />
<glyph unicode="z" horiz-adv-x="622" d="M-98 1042q-3 25 9 47t40 29q153 43 223 43q123 0 180 -82q28 -42 34 -88q2 -12 2 -23q0 -36 -14 -75q-18 -52 -34.5 -83.5t-48.5 -86.5q-14 -25 -25 -41l-75 -129q-126 -217 -166 -305q-1 -1 -2 -4.5t-2 -5.5q-32 -60 -32 -88q0 -8 3 -13q7 -18 76 -18h14q5 0 15.5 -1 t15.5 -1q101 0 211 35q16 4 22 4q24 0 42.5 -17.5t23.5 -44.5q3 -26 -8.5 -49t-40.5 -31q-118 -39 -248 -39q-143 0 -199 33q-68 39 -68 124q0 91 78 235q52 101 170 303q25 42 78 137q5 10 14 22q58 94 58 140q0 8 -2 14q-8 20 -25 27q-21 12 -53 12q-53 0 -154 -33 q-15 -3 -24 -6q-16 -4 -23 -4q-27 0 -44.5 18.5t-20.5 44.5z" />
<glyph unicode="{" horiz-adv-x="569" d="M-58 699q1 11 3 22q3 22 22 92q25 86 27 123q2 25 2 78q0 69 6 104q10 84 60.5 138t127.5 65h13q26 0 43 -16.5t20 -44.5q2 -32 -17 -59.5t-54 -31.5q-19 -2 -31 -20.5t-15.5 -44.5t-4.5 -56t1 -55q2 -18 2 -47q-7 -78 -20 -133q-2 -8 -7 -25.5t-7 -25.5q-21 -61 -21 -84 t21 -84q6 -21 12 -39l14 -49q4 -17 13.5 -49t13.5 -49q1 -4 3 -11.5t3 -11.5q12 -44 20 -69t27.5 -56.5t46.5 -48.5q49 -29 33 -82q-8 -26 -27.5 -42.5t-44.5 -16.5q-19 0 -37 12q-69 41 -104 107t-63 165q-6 22 -17.5 66t-17.5 65l-19 68q-6 18 -8 22q-22 85 -19 124z" />
<glyph unicode="|" />
<glyph unicode="}" horiz-adv-x="610" d="M98 1192q4 26 22.5 42.5t41.5 16.5q16 0 24 -4q65 -22 109 -75.5t57 -129.5q6 -26 6 -114q0 -51 2 -80t14.5 -67t37.5 -62q35 -40 10 -86q-19 -37 -28.5 -83t-10.5 -80.5t0 -90.5q0 -51 -1.5 -79.5t-7 -72.5t-20.5 -80.5t-39 -70.5q-24 -31 -57 -31q-22 0 -41.5 11 t-28.5 30q-16 32 7 64q24 34 36 79t13.5 76.5t1.5 89.5v29q0 144 33 233q-52 76 -58 199v47q0 36 -0.5 52t-4 48.5t-10.5 49t-22 34.5t-37 25q-29 8 -40.5 31t-8.5 49z" />
<glyph unicode="~" />
<glyph unicode="&#xa1;" />
<glyph unicode="&#xa2;" />
<glyph unicode="&#xa3;" />
<glyph unicode="&#xa4;" />
<glyph unicode="&#xa5;" />
<glyph unicode="&#xa6;" />
<glyph unicode="&#xa7;" />
<glyph unicode="&#xa8;" />
<glyph unicode="&#xa9;" />
<glyph unicode="&#xaa;" />
<glyph unicode="&#xab;" />
<glyph unicode="&#xac;" />
<glyph unicode="&#xad;" horiz-adv-x="827" d="M133 500q0 26 17 45.5t47 19.5h4q105 -6 205 -6q18 0 53 1t53 1h2q31 0 48.5 -20t17.5 -47q0 -28 -18 -50.5t-50 -23.5h-106q-137 0 -205 4q-33 1 -51.5 24t-16.5 52z" />
<glyph unicode="&#xae;" />
<glyph unicode="&#xaf;" />
<glyph unicode="&#xb0;" />
<glyph unicode="&#xb1;" />
<glyph unicode="&#xb2;" />
<glyph unicode="&#xb3;" />
<glyph unicode="&#xb4;" />
<glyph unicode="&#xb5;" />
<glyph unicode="&#xb6;" />
<glyph unicode="&#xb7;" />
<glyph unicode="&#xb8;" />
<glyph unicode="&#xb9;" />
<glyph unicode="&#xba;" />
<glyph unicode="&#xbb;" />
<glyph unicode="&#xbc;" />
<glyph unicode="&#xbd;" />
<glyph unicode="&#xbe;" />
<glyph unicode="&#xbf;" />
<glyph unicode="&#xc0;" />
<glyph unicode="&#xc1;" />
<glyph unicode="&#xc2;" />
<glyph unicode="&#xc3;" />
<glyph unicode="&#xc4;" />
<glyph unicode="&#xc5;" />
<glyph unicode="&#xc6;" />
<glyph unicode="&#xc7;" />
<glyph unicode="&#xc8;" />
<glyph unicode="&#xc9;" />
<glyph unicode="&#xca;" />
<glyph unicode="&#xcb;" />
<glyph unicode="&#xcc;" />
<glyph unicode="&#xcd;" />
<glyph unicode="&#xce;" />
<glyph unicode="&#xcf;" />
<glyph unicode="&#xd0;" />
<glyph unicode="&#xd1;" />
<glyph unicode="&#xd2;" />
<glyph unicode="&#xd3;" />
<glyph unicode="&#xd4;" />
<glyph unicode="&#xd5;" />
<glyph unicode="&#xd6;" />
<glyph unicode="&#xd7;" />
<glyph unicode="&#xd8;" />
<glyph unicode="&#xd9;" />
<glyph unicode="&#xda;" />
<glyph unicode="&#xdb;" />
<glyph unicode="&#xdc;" />
<glyph unicode="&#xdd;" />
<glyph unicode="&#xde;" />
<glyph unicode="&#xdf;" />
<glyph unicode="&#xe0;" />
<glyph unicode="&#xe1;" />
<glyph unicode="&#xe2;" />
<glyph unicode="&#xe3;" />
<glyph unicode="&#xe4;" />
<glyph unicode="&#xe5;" />
<glyph unicode="&#xe6;" />
<glyph unicode="&#xe7;" />
<glyph unicode="&#xe8;" />
<glyph unicode="&#xe9;" />
<glyph unicode="&#xea;" />
<glyph unicode="&#xeb;" />
<glyph unicode="&#xec;" />
<glyph unicode="&#xed;" />
<glyph unicode="&#xee;" />
<glyph unicode="&#xef;" />
<glyph unicode="&#xf0;" />
<glyph unicode="&#xf1;" />
<glyph unicode="&#xf2;" />
<glyph unicode="&#xf3;" />
<glyph unicode="&#xf4;" />
<glyph unicode="&#xf5;" />
<glyph unicode="&#xf6;" />
<glyph unicode="&#xf7;" />
<glyph unicode="&#xf8;" />
<glyph unicode="&#xf9;" />
<glyph unicode="&#xfa;" />
<glyph unicode="&#xfb;" />
<glyph unicode="&#xfc;" />
<glyph unicode="&#xfd;" />
<glyph unicode="&#xfe;" />
<glyph unicode="&#xff;" />
<glyph unicode="&#x2c6;" />
<glyph unicode="&#x2dc;" />
<glyph unicode="&#x2000;" horiz-adv-x="769" />
<glyph unicode="&#x2001;" horiz-adv-x="1538" />
<glyph unicode="&#x2002;" horiz-adv-x="769" />
<glyph unicode="&#x2003;" horiz-adv-x="1538" />
<glyph unicode="&#x2004;" horiz-adv-x="512" />
<glyph unicode="&#x2005;" horiz-adv-x="384" />
<glyph unicode="&#x2006;" horiz-adv-x="256" />
<glyph unicode="&#x2007;" horiz-adv-x="256" />
<glyph unicode="&#x2008;" horiz-adv-x="192" />
<glyph unicode="&#x2009;" horiz-adv-x="307" />
<glyph unicode="&#x200a;" horiz-adv-x="85" />
<glyph unicode="&#x2010;" horiz-adv-x="827" d="M133 500q0 26 17 45.5t47 19.5h4q105 -6 205 -6q18 0 53 1t53 1h2q31 0 48.5 -20t17.5 -47q0 -28 -18 -50.5t-50 -23.5h-106q-137 0 -205 4q-33 1 -51.5 24t-16.5 52z" />
<glyph unicode="&#x2011;" horiz-adv-x="827" d="M133 500q0 26 17 45.5t47 19.5h4q105 -6 205 -6q18 0 53 1t53 1h2q31 0 48.5 -20t17.5 -47q0 -28 -18 -50.5t-50 -23.5h-106q-137 0 -205 4q-33 1 -51.5 24t-16.5 52z" />
<glyph unicode="&#x2012;" horiz-adv-x="827" d="M133 500q0 26 17 45.5t47 19.5h4q105 -6 205 -6q18 0 53 1t53 1h2q31 0 48.5 -20t17.5 -47q0 -28 -18 -50.5t-50 -23.5h-106q-137 0 -205 4q-33 1 -51.5 24t-16.5 52z" />
<glyph unicode="&#x2013;" />
<glyph unicode="&#x2014;" />
<glyph unicode="&#x2018;" />
<glyph unicode="&#x2019;" />
<glyph unicode="&#x201a;" />
<glyph unicode="&#x201c;" />
<glyph unicode="&#x201d;" />
<glyph unicode="&#x201e;" />
<glyph unicode="&#x2022;" />
<glyph unicode="&#x2026;" />
<glyph unicode="&#x202f;" horiz-adv-x="307" />
<glyph unicode="&#x2039;" />
<glyph unicode="&#x203a;" />
<glyph unicode="&#x205f;" horiz-adv-x="384" />
<glyph unicode="&#x20ac;" />
<glyph unicode="&#x2122;" />
<glyph unicode="&#x25fc;" horiz-adv-x="1157" d="M0 0v1157h1157v-1157h-1157z" />
</font>
</defs>
</svg>
